# xmcd
# 
# Track frame offsets:
#     150
#     19219
#     44064
#     66209
# 
# Disc length: 1103
# 
# Revision: 0
# Processed by: cddbd v1.5.2PL0 Copyright (c) Steve Scherf et al.
# Submitted via: fre:ac v1.0.17
# 
DISCID=35044d04
DTITLE=The Animalhouse - Ready to Receive
DYEAR=2000
DGENRE=
TTITLE0=Ready to Receive
TTITLE1=Chase The Sun
TTITLE2=One Night Only
TTITLE3=What Happened To The Future
EXTD=
EXTT0=
EXTT1=
EXTT2=
EXTT3=
PLAYORDER=
